<?xml version="1.0" encoding="utf-8"?>
<!-- Generator: Adobe Illustrator 24.1.2, SVG Export Plug-In . SVG Version: 6.00 Build 0)  -->
<svg version="1.1" id="レイヤー_1" xmlns="http://www.w3.org/2000/svg" xmlns:xlink="http://www.w3.org/1999/xlink" x="0px"
	 y="0px" viewBox="0 0 1237.9 410.7" style="enable-background:new 0 0 1237.9 410.7;" xml:space="preserve">
<style type="text/css">
	.st0{fill:none;stroke:#000000;stroke-width:3;stroke-miterlimit:10;}
</style>
<g>
	<path d="M95.6,256.2c-1.5,0-6.9,0-7.4,5.3c-0.5,6.6-1,13.7-12.2,13.7c-8.4,0-8.9-5.1-8.9-9.4c0-1,1.5-51.9,1.5-61.6
		c0-27.7,0-88.3-2-114C66.4,88,65.1,77.3,65.1,75c0-1.3,0.2-2,1.5-2c1,0,2.3,0.5,12,5.3c7.1,3.3,8.4,3.6,12.7,3.6h77.9
		c5.3,0,7.4,0,9.2-2.5c3.8-5.3,4.8-6.6,7.4-6.6c3.6,0,22.1,12,22.1,15.8c0,1.8-1.3,2.8-5.6,6.6c-3.3,2.5-4.6,4.3-4.6,16.5
		c0,27.2,0.2,31.8,0.5,54.2c0.2,14.5,2,78.9,2,92.1c0,8.9-5.9,14-12.7,14c-0.8,0-7.4,0-8.1-9.7c-0.2-4.3-0.2-6.1-5.3-6.1H95.6
		L95.6,256.2z M172,163.8c7.4,0,7.4-4.8,7.4-8.1c0-3.1-0.8-62.3-1.3-63.6c-1.5-3.3-4.8-3.3-6.4-3.3H93.1c-3.6,0-5.6,2.3-5.9,3.8
		c-0.5,2-0.5,57.3-0.5,61.8c0,4.8,0.2,9.4,7.1,9.4H172L172,163.8z M171.7,249.4c2.3,0,6.9,0,7.4-5.3c0.2-1.5,0.2-58,0.2-63.9
		c0-5.3-0.5-9.7-7.4-9.7H94.1c-6.6,0-7.4,3.8-7.4,8.9c0,8.4,0.8,49.4,0.8,58.5c0,8.1,0.8,11.4,7.6,11.4h76.6V249.4z"/>
	<path d="M322.3,105.8c8.4,0,9.9-1.3,14.2-7.4c6.4-8.9,17.3-32.1,18.8-38.4c1-4.8,1.3-7.1,3-7.1c1,0,17.8,10.4,18.8,11.2
		c1.3,1,6.9,4.8,6.9,7.4c0,2-0.8,2.3-7.1,3c-4.8,0.8-34.1,28.2-34.1,29.3c0,2,1.5,2,4.1,2h103.3c4.8,0,6.9-1.8,8.4-3.8
		c3-4.1,4.1-5.1,5.3-5.1c2.8,0,20.9,14,20.9,17.6c0,1.3-1.5,2.5-2,3.1c-6.4,5.1-7.9,6.4-8.1,14.5c-0.2,7.4-0.2,12.5-0.2,59.5
		c0,9.7,0.8,57.5,0.8,68.5c0,8.9-2.5,14.5-10.4,19.3c-2.5,1.5-8.6,4.6-12.5,4.6c-2,0-4.6-0.8-5.1-2.8c-1.3-5.3-1.5-6.4-3.6-7.9
		c-2.5-1.8-18.3-7.6-18.3-9.7c0-1.3,2.3-1.3,2.8-1.3c2.3,0,13,1,15.5,1c13.2,0,13.2-2.5,13.2-21.9c0-7.1,0.5-41,0.5-48.6
		c0-9.7-0.2-59-0.2-68.7c0-8.7,0-11.7-7.9-11.7H302.7c-3.1,0-6.6,0-8.1,3s-1.5,41-1.5,48.3c0,15,1,88.6,1,105.1
		c0,7.1,0,15.5-15,15.5c-5.6,0-7.1-1.5-7.1-5.9c0-10.2,1.5-26.2,2.3-36.4c0.5-8.6,1.3-91.1,1.3-92.9c0-8.1,0-23.7-1.3-37.2
		c-0.2-1.8-2-10.7-2-12.5c0-0.5,0.5-1,1.3-1c3.1,0,7.4,2,14.2,4.8c4.6,2,9.7,2.3,14,2.3L322.3,105.8L322.3,105.8z M354.6,229.8
		c-6.4,0-6.4,0.8-6.4,7.1c0,7.1-5.9,10.7-12.7,10.7c-5.1,0-6.9-1.8-6.9-7.1c0-1.3,1.8-46.1,1.8-54.7c0-2.8,0.2-12-0.5-25.2
		c0-2-1.5-11.4-1.5-13.5c0-2.3,0.8-4.1,3-4.1c2.5,0,14,5.8,16.8,6.4c3,0.8,5.1,0.8,7.1,0.8h41c3,0,5.6,0,7.1-1.5
		c3.8-3.6,5.3-5.1,7.1-5.1c3.3,0,15.3,7.9,15.3,12.2c0,1.8-5.6,9.2-6.1,10.9c-0.5,1.8-0.5,22.4-0.5,26c0,5.6,0.5,33.6,0.5,39.7
		c0,5.1,0,14.2-13,14.2c-5.9,0-5.9-1.3-5.9-12.5c0-4.3-2.8-4.3-5.1-4.3H354.6z M394.1,223.1c2,0,5.9,0,7.1-3.1c1-3.1,1-40.5,1-45
		c0-16.3,0-18.3-7.6-18.3h-40c-7.6,0-7.6,4.1-7.6,10.9c0,3.6,0,49.4,1.3,52.4s4.8,3.1,7.1,3.1H394.1z"/>
	<path d="M522,132c-1-1.3-1.3-1.3-1.3-1.8c0-0.2,0.5-0.5,1-0.5c5.1,0,28,1.8,32.6,1.8c7.1,0,7.6-2.8,7.6-6.1c0-31.8,0-42.2-0.5-47.6
		c0-2-2.8-10.9-2.8-12.7c0-1.8,1.5-3.1,3-3.1c1.8,0,15.8,5.6,18.8,6.9c6.9,2.8,7.6,3,7.6,5.6c0,1.8-0.5,2.3-5.3,6.9
		c-0.8,0.8-1,1.8-1.3,3.6c0,2.3-0.8,31-0.8,33.8c0,8.4,0,11.4,4.3,11.4c3,0,5.1-2.8,5.6-3.8c4.1-7.6,4.6-8.7,6.4-8.7
		c4.6,0,19.3,12.5,19.3,16.8c0,3.6-4.6,3.6-13.5,3.6h-13c-4.6,0-9.2,0-9.2,6.4c0,7.6,0,56.8,0.8,58.8c1,3.6,4.6,3.6,5.3,3.6
		c4.3,0,26.5-7.4,26.7-7.4c0.8,0,1,0.5,1,1c0,1.3-6.9,5.1-8.7,6.1c-9.2,5.6-58.3,31.3-60.1,32.3c-1.3,1.5-4.3,5.3-5.1,6.1
		s-2.3,2-3.8,2c-2.8,0-4.6-3.6-6.4-7.4c-1.3-2.8-9.7-19.6-9.7-20.4c0-1.5,1-2.5,2.8-2.5c1.5,0,8.1,1,9.7,1c1.3,0,26-1.3,28.2-7.4
		c0.8-2,0.8-34.6,0.8-38.9c0-6.1,0-28.2-1-30.5c-1.3-2.8-4.8-2.8-7.6-2.8s-15.8,0.5-21.1,1c-1.3,0-3,0.2-3.6,0.2
		c-0.8,0-1.5-0.5-2.3-1.5L522,132z M705,74.5c10.2,0,12-0.2,13.5-2.3c1.8-2.3,8.7-15.5,11.2-15.5c1.5,0,24.2,17,24.2,20.9
		c0,3.6-4.8,3.6-13.7,3.6h-92.6c-8.1,0-8.1,2.5-8.1,17c0,24.7,0,25.2,7.6,25.2h58c4.3,0,7.1-0.2,10.7-4.6c2-2.5,3-3.3,4.6-3.3
		c2.3,0,18.6,13.7,18.6,18.8c0,4.6-3.8,4.6-5.1,4.6c-4.1,0-5.6,0.5-6.6,4.3c-6.4,24.2-15.5,46.1-25.7,62.6c-1.3,2-2.8,4.6-2.8,7.1
		c0,5.9,26,36.6,49.9,49.4c1.8,1,11.2,5.1,11.2,5.9c0,0.5-0.5,1-1,1c-1.3,0-8.7-1.5-10.2-1.5c-5.1,0-14,2-21.1,6.4
		c-1.3,0.8-4.1,3.3-5.1,3.3c-2,0-21.6-25.7-23.9-29.3c-1.3-2-6.9-10.7-8.1-13c-0.8-1-2.5-3.6-4.6-3.6c-2.5,0-3.6,1.8-4.8,3.3
		c-32.3,37.7-64.4,47.3-66.2,47.3c-0.8,0-1.3-0.5-1.3-1s11.2-7.9,13.2-9.4c30.8-23.7,50.4-53.9,50.4-58.8c0-1.8-0.2-2.8-4.1-11.4
		c-9.7-22.4-13.5-41-17.6-66.4c-0.2-1.5-1-5.1-6.6-5.1s-9.7,0-9.7,7.4c-0.5,88.3-27.7,120.6-53.2,140.7c-3,2.3-8.7,5.6-9.9,5.6
		c-1,0-1.3-0.5-1.3-1s6.9-7.1,8.1-8.4c35.1-40,38.9-91.6,38.9-150.9c0-11.5-0.2-39.4-2.3-49.4c-0.2-1.3-2.3-8.1-2.3-8.6
		c0-1,0.5-1.8,1.8-1.8c1.8,0,9.7,3.1,16.8,6.4c8.9,4.3,9.9,4.6,15,4.6L705,74.5L705,74.5z M667.6,130c-2.3,0-5.3,0-5.3,4.3
		c0,1.3,0.5,4.3,1,6.1c4.3,19.1,6.4,22.7,16.3,43.5c4.3,8.9,4.3,9.7,6.6,9.7c2.8,0,3.6-1.5,9.2-15.5c8.4-20.4,14-38.4,14-43
		c0-5.1-3.8-5.1-6.6-5.1H667.6L667.6,130z"/>
	<path d="M904.5,209.7c1.5,0,6.1,0.2,6.1,4.1c0,4.3-3.8,4.3-6.1,4.3h-17.6c-7.4,0-7.4,4.1-7.4,15c0,15.5,0,24.2,13.5,25.2
		c8.4,0.8,10.4,0.8,10.4,4.6c0,3.8-4.6,3.8-6.9,3.8h-57.3c-2,0-6.1-0.2-6.1-3.8c0-4.3,3.3-4.3,8.7-4.3c17.3,0,17.3-9.2,17.3-25.2
		c0-10.4,0-15.3-6.9-15.3h-57.1c-3,0-6.1,0-6.1-4.6c0-2.5,0.5-3.3,5.1-10.7c5.6-9.4,65.7-109.7,67.2-112.5c7.6-12.5,8.4-14,12.5-14
		c1.5,0,3.6,0.8,4.8,2.5c1.5,2.8,1.5,31.8,1.5,37.4c0,9.7-0.8,57.3-0.8,67.9c0,22.9,0,25.4,7.1,25.4L904.5,209.7L904.5,209.7z
		 M852.3,209.7c4.1,0,6.1-2.5,6.6-5.6c0.2-2.3,0.2-30.3,0.2-45.3c0-3.6-0.5-37.2-0.5-37.7c0-0.8-0.5-3.6-2-3.6
		c-1.3,0-5.3,6.4-6.9,8.9c-5.3,9.2-47.6,78.6-47.6,80.7c0,1.5,1.5,2.5,5.1,2.5L852.3,209.7L852.3,209.7z"/>
	<path d="M1043.1,204.3c0,36.4-26.5,67.2-54.5,67.2c-27.2,0-58.5-31.3-58.5-87.3c0-59.3,34.1-107.9,72.5-107.9
		c15.5,0,28.5,9.4,28.5,21.4c0,8.9-7.4,12.7-13.2,12.7c-4.6,0-13.5-2.8-14-17c-0.2-5.1-0.8-8.6-7.4-8.6c-24.4,0-42.8,48.9-42.8,82.7
		c0,1,0,5.1,1.8,5.1c0.8,0,1.3-0.8,6.4-5.8c5.6-5.8,16.8-17.3,35.6-17.3C1021.2,149.3,1043.1,171.7,1043.1,204.3z M954.5,202
		c0,26.2,13,61.3,33.1,61.3c11.7,0,32.6-14,32.6-55.7c0-12.7-2.3-47.1-29.8-47.1C979.7,160.6,954.5,174.3,954.5,202z"/>
</g>
<line class="st0" x1="0" y1="321.9" x2="1237.9" y2="321.9"/>
<line class="st0" x1="1069.1" y1="0" x2="1069.1" y2="410.7"/>
</svg>
