{
    "asset" : {
        "generator" : "Khronos glTF Blender I/O v1.1.46",
        "version" : "2.0"
    },
    "scene" : 0,
    "scenes" : [
        {
            "name" : "Scene",
            "nodes" : [
                0
            ]
        }
    ],
    "nodes" : [
        {
            "mesh" : 0,
            "name" : "Cylinder",
            "scale" : [
                0.5,
                1,
                0.5
            ]
        }
    ],
    "materials" : [
        {
            "doubleSided" : true,
            "emissiveFactor" : [
                0,
                0,
                0
            ],
            "name" : "Floor",
            "pbrMetallicRoughness" : {
                "baseColorTexture" : {
                    "index" : 0,
                    "texCoord" : 0
                },
                "metallicRoughnessTexture" : {
                    "index" : 1,
                    "texCoord" : 0
                }
            }
        },
        {
            "doubleSided" : true,
            "emissiveFactor" : [
                0,
                0,
                0
            ],
            "name" : "Floor-Side",
            "pbrMetallicRoughness" : {
                "baseColorTexture" : {
                    "index" : 2,
                    "texCoord" : 0
                },
                "metallicRoughnessTexture" : {
                    "index" : 3,
                    "texCoord" : 0
                }
            }
        },
        {
            "doubleSided" : true,
            "emissiveFactor" : [
                0,
                0,
                0
            ],
            "name" : "Wall",
            "pbrMetallicRoughness" : {
                "baseColorTexture" : {
                    "index" : 4,
                    "texCoord" : 0
                },
                "metallicRoughnessTexture" : {
                    "index" : 5,
                    "texCoord" : 0
                }
            }
        }
    ],
    "meshes" : [
        {
            "name" : "Cylinder",
            "primitives" : [
                {
                    "attributes" : {
                        "POSITION" : 0,
                        "NORMAL" : 1,
                        "TEXCOORD_0" : 2
                    },
                    "indices" : 3,
                    "material" : 0
                },
                {
                    "attributes" : {
                        "POSITION" : 4,
                        "NORMAL" : 5,
                        "TEXCOORD_0" : 6
                    },
                    "indices" : 7,
                    "material" : 1
                },
                {
                    "attributes" : {
                        "POSITION" : 8,
                        "NORMAL" : 9,
                        "TEXCOORD_0" : 10
                    },
                    "indices" : 11,
                    "material" : 2
                }
            ]
        }
    ],
    "textures" : [
        {
            "source" : 0
        },
        {
            "source" : 1
        },
        {
            "source" : 2
        },
        {
            "source" : 3
        },
        {
            "source" : 4
        },
        {
            "source" : 5
        }
    ],
    "images" : [
        {
            "bufferView" : 4,
            "mimeType" : "image/png",
            "name" : "base_Floor_BaseColor"
        },
        {
            "bufferView" : 5,
            "mimeType" : "image/png",
            "name" : "base_Floor_Metallic-base_Floor_Roughness"
        },
        {
            "bufferView" : 10,
            "mimeType" : "image/png",
            "name" : "base_Floor-Side_BaseColor"
        },
        {
            "bufferView" : 11,
            "mimeType" : "image/png",
            "name" : "base_Floor-Side_Metallic-base_Floor-Side_Roughness"
        },
        {
            "bufferView" : 16,
            "mimeType" : "image/png",
            "name" : "base_Wall_BaseColor"
        },
        {
            "bufferView" : 17,
            "mimeType" : "image/png",
            "name" : "base_Wall_Metallic-base_Wall_Roughness"
        }
    ],
    "accessors" : [
        {
            "bufferView" : 0,
            "componentType" : 5126,
            "count" : 35,
            "max" : [
                2,
                0.30000001192092896,
                2
            ],
            "min" : [
                -2,
                0.30000001192092896,
                -0.3901827037334442
            ],
            "type" : "VEC3"
        },
        {
            "bufferView" : 1,
            "componentType" : 5126,
            "count" : 35,
            "type" : "VEC3"
        },
        {
            "bufferView" : 2,
            "componentType" : 5126,
            "count" : 35,
            "type" : "VEC2"
        },
        {
            "bufferView" : 3,
            "componentType" : 5123,
            "count" : 51,
            "type" : "SCALAR"
        },
        {
            "bufferView" : 6,
            "componentType" : 5126,
            "count" : 99,
            "max" : [
                2,
                0.30000001192092896,
                2
            ],
            "min" : [
                -2,
                0,
                -2
            ],
            "type" : "VEC3"
        },
        {
            "bufferView" : 7,
            "componentType" : 5126,
            "count" : 99,
            "type" : "VEC3"
        },
        {
            "bufferView" : 8,
            "componentType" : 5126,
            "count" : 99,
            "type" : "VEC2"
        },
        {
            "bufferView" : 9,
            "componentType" : 5123,
            "count" : 192,
            "type" : "SCALAR"
        },
        {
            "bufferView" : 12,
            "componentType" : 5126,
            "count" : 115,
            "max" : [
                2,
                2.3000001907348633,
                2
            ],
            "min" : [
                -2,
                0,
                -2
            ],
            "type" : "VEC3"
        },
        {
            "bufferView" : 13,
            "componentType" : 5126,
            "count" : 115,
            "type" : "VEC3"
        },
        {
            "bufferView" : 14,
            "componentType" : 5126,
            "count" : 115,
            "type" : "VEC2"
        },
        {
            "bufferView" : 15,
            "componentType" : 5123,
            "count" : 219,
            "type" : "SCALAR"
        }
    ],
    "bufferViews" : [
        {
            "buffer" : 0,
            "byteLength" : 420,
            "byteOffset" : 0
        },
        {
            "buffer" : 0,
            "byteLength" : 420,
            "byteOffset" : 420
        },
        {
            "buffer" : 0,
            "byteLength" : 280,
            "byteOffset" : 840
        },
        {
            "buffer" : 0,
            "byteLength" : 102,
            "byteOffset" : 1120
        },
        {
            "buffer" : 0,
            "byteLength" : 30909,
            "byteOffset" : 1224
        },
        {
            "buffer" : 0,
            "byteLength" : 36590,
            "byteOffset" : 32136
        },
        {
            "buffer" : 0,
            "byteLength" : 1188,
            "byteOffset" : 68728
        },
        {
            "buffer" : 0,
            "byteLength" : 1188,
            "byteOffset" : 69916
        },
        {
            "buffer" : 0,
            "byteLength" : 792,
            "byteOffset" : 71104
        },
        {
            "buffer" : 0,
            "byteLength" : 384,
            "byteOffset" : 71896
        },
        {
            "buffer" : 0,
            "byteLength" : 1902,
            "byteOffset" : 72280
        },
        {
            "buffer" : 0,
            "byteLength" : 4429,
            "byteOffset" : 74184
        },
        {
            "buffer" : 0,
            "byteLength" : 1380,
            "byteOffset" : 78616
        },
        {
            "buffer" : 0,
            "byteLength" : 1380,
            "byteOffset" : 79996
        },
        {
            "buffer" : 0,
            "byteLength" : 920,
            "byteOffset" : 81376
        },
        {
            "buffer" : 0,
            "byteLength" : 438,
            "byteOffset" : 82296
        },
        {
            "buffer" : 0,
            "byteLength" : 102731,
            "byteOffset" : 82736
        },
        {
            "buffer" : 0,
            "byteLength" : 83518,
            "byteOffset" : 185468
        }
    ],
    "buffers" : [
        {
            "byteLength" : 268988,
            "uri" : "data:application/octet-stream;base64,"
        }
    ]
}
