{
    "asset" : {
        "generator" : "Khronos glTF Blender I/O v1.1.46",
        "version" : "2.0"
    },
    "scene" : 0,
    "scenes" : [
        {
            "name" : "Scene",
            "nodes" : [
                0,
                1,
                2,
                3,
                4,
                5
            ]
        }
    ],
    "nodes" : [
        {
            "mesh" : 0,
            "name" : "Cube",
            "scale" : [
                1,
                0.04833739995956421,
                1
            ]
        },
        {
            "mesh" : 1,
            "name" : "Cube.001",
            "scale" : [
                0.4244547486305237,
                0.8901276588439941,
                0.4244547486305237
            ],
            "translation" : [
                0,
                0.8867167234420776,
                0
            ]
        },
        {
            "mesh" : 2,
            "name" : "Cube.002",
            "scale" : [
                0.2729710638523102,
                0.022917604073882103,
                0.20933832228183746
            ],
            "translation" : [
                0,
                0.3017186224460602,
                0.5944522023200989
            ]
        },
        {
            "mesh" : 3,
            "name" : "Cylinder",
            "scale" : [
                0.02551686391234398,
                0.14420786499977112,
                0.02551686391234398
            ],
            "translation" : [
                -0.22188076376914978,
                0.1376396119594574,
                0.741838276386261
            ]
        },
        {
            "mesh" : 4,
            "name" : "Cylinder.001",
            "scale" : [
                0.02551686391234398,
                0.14420786499977112,
                0.02551686391234398
            ],
            "translation" : [
                0.22089779376983643,
                0.1376396119594574,
                0.741838276386261
            ]
        },
        {
            "mesh" : 5,
            "name" : "Cube.003",
            "scale" : [
                0.2442999631166458,
                0.008551647886633873,
                0.14240358769893646
            ],
            "translation" : [
                -0.00010234490036964417,
                0.017568878829479218,
                0.5054698586463928
            ]
        }
    ],
    "materials" : [
        {
            "doubleSided" : true,
            "emissiveFactor" : [
                0,
                0,
                0
            ],
            "name" : "White",
            "pbrMetallicRoughness" : {
                "baseColorFactor" : [
                    1,
                    1,
                    1,
                    1
                ],
                "metallicFactor" : 0,
                "roughnessFactor" : 0.5
            }
        },
        {
            "doubleSided" : true,
            "emissiveFactor" : [
                0,
                0,
                0
            ],
            "name" : "Base",
            "pbrMetallicRoughness" : {
                "baseColorFactor" : [
                    0.46179822087287903,
                    0.8000000715255737,
                    0.7322143316268921,
                    1
                ],
                "metallicFactor" : 0,
                "roughnessFactor" : 0.4000000059604645
            }
        },
        {
            "doubleSided" : true,
            "emissiveFactor" : [
                0,
                0,
                0
            ],
            "name" : "Key",
            "pbrMetallicRoughness" : {
                "baseColorFactor" : [
                    0.04557304456830025,
                    0.09373266249895096,
                    0.8000000715255737,
                    1
                ],
                "metallicFactor" : 0,
                "roughnessFactor" : 0.5
            }
        }
    ],
    "meshes" : [
        {
            "name" : "Cube.001",
            "primitives" : [
                {
                    "attributes" : {
                        "POSITION" : 0,
                        "NORMAL" : 1,
                        "TEXCOORD_0" : 2
                    },
                    "indices" : 3,
                    "material" : 0
                }
            ]
        },
        {
            "name" : "Cube.002",
            "primitives" : [
                {
                    "attributes" : {
                        "POSITION" : 4,
                        "NORMAL" : 5,
                        "TEXCOORD_0" : 6
                    },
                    "indices" : 7,
                    "material" : 1
                },
                {
                    "attributes" : {
                        "POSITION" : 8,
                        "NORMAL" : 9,
                        "TEXCOORD_0" : 10
                    },
                    "indices" : 11,
                    "material" : 2
                }
            ]
        },
        {
            "name" : "Cube.003",
            "primitives" : [
                {
                    "attributes" : {
                        "POSITION" : 12,
                        "NORMAL" : 13,
                        "TEXCOORD_0" : 14
                    },
                    "indices" : 15,
                    "material" : 2
                }
            ]
        },
        {
            "name" : "Cylinder",
            "primitives" : [
                {
                    "attributes" : {
                        "POSITION" : 16,
                        "NORMAL" : 17,
                        "TEXCOORD_0" : 18
                    },
                    "indices" : 19,
                    "material" : 1
                }
            ]
        },
        {
            "name" : "Cylinder.001",
            "primitives" : [
                {
                    "attributes" : {
                        "POSITION" : 20,
                        "NORMAL" : 21,
                        "TEXCOORD_0" : 22
                    },
                    "indices" : 19,
                    "material" : 1
                }
            ]
        },
        {
            "name" : "Cube.004",
            "primitives" : [
                {
                    "attributes" : {
                        "POSITION" : 23,
                        "NORMAL" : 24,
                        "TEXCOORD_0" : 25
                    },
                    "indices" : 26,
                    "material" : 1
                }
            ]
        }
    ],
    "accessors" : [
        {
            "bufferView" : 0,
            "componentType" : 5126,
            "count" : 56,
            "max" : [
                0.9999999403953552,
                0.27728670835494995,
                0.9999999403953552
            ],
            "min" : [
                -0.9999999403953552,
                -0.27728670835494995,
                -0.9999999403953552
            ],
            "type" : "VEC3"
        },
        {
            "bufferView" : 1,
            "componentType" : 5126,
            "count" : 56,
            "type" : "VEC3"
        },
        {
            "bufferView" : 2,
            "componentType" : 5126,
            "count" : 56,
            "type" : "VEC2"
        },
        {
            "bufferView" : 3,
            "componentType" : 5123,
            "count" : 84,
            "type" : "SCALAR"
        },
        {
            "bufferView" : 4,
            "componentType" : 5126,
            "count" : 1901,
            "max" : [
                1,
                0.6945374011993408,
                1
            ],
            "min" : [
                -1,
                -1,
                -1
            ],
            "type" : "VEC3"
        },
        {
            "bufferView" : 5,
            "componentType" : 5126,
            "count" : 1901,
            "type" : "VEC3"
        },
        {
            "bufferView" : 6,
            "componentType" : 5126,
            "count" : 1901,
            "type" : "VEC2"
        },
        {
            "bufferView" : 7,
            "componentType" : 5123,
            "count" : 2904,
            "type" : "SCALAR"
        },
        {
            "bufferView" : 8,
            "componentType" : 5126,
            "count" : 164,
            "max" : [
                1,
                0.6945374011993408,
                1
            ],
            "min" : [
                -1,
                0.6631118655204773,
                -1
            ],
            "type" : "VEC3"
        },
        {
            "bufferView" : 9,
            "componentType" : 5126,
            "count" : 164,
            "type" : "VEC3"
        },
        {
            "bufferView" : 10,
            "componentType" : 5126,
            "count" : 164,
            "type" : "VEC2"
        },
        {
            "bufferView" : 11,
            "componentType" : 5123,
            "count" : 288,
            "type" : "SCALAR"
        },
        {
            "bufferView" : 12,
            "componentType" : 5126,
            "count" : 24,
            "max" : [
                1,
                1,
                1
            ],
            "min" : [
                -1,
                -1,
                -1
            ],
            "type" : "VEC3"
        },
        {
            "bufferView" : 13,
            "componentType" : 5126,
            "count" : 24,
            "type" : "VEC3"
        },
        {
            "bufferView" : 14,
            "componentType" : 5126,
            "count" : 24,
            "type" : "VEC2"
        },
        {
            "bufferView" : 15,
            "componentType" : 5123,
            "count" : 36,
            "type" : "SCALAR"
        },
        {
            "bufferView" : 16,
            "componentType" : 5126,
            "count" : 96,
            "max" : [
                1,
                1,
                1
            ],
            "min" : [
                -1,
                -1,
                -1
            ],
            "type" : "VEC3"
        },
        {
            "bufferView" : 17,
            "componentType" : 5126,
            "count" : 96,
            "type" : "VEC3"
        },
        {
            "bufferView" : 18,
            "componentType" : 5126,
            "count" : 96,
            "type" : "VEC2"
        },
        {
            "bufferView" : 19,
            "componentType" : 5123,
            "count" : 180,
            "type" : "SCALAR"
        },
        {
            "bufferView" : 20,
            "componentType" : 5126,
            "count" : 96,
            "max" : [
                1,
                1,
                1
            ],
            "min" : [
                -1,
                -1,
                -1
            ],
            "type" : "VEC3"
        },
        {
            "bufferView" : 21,
            "componentType" : 5126,
            "count" : 96,
            "type" : "VEC3"
        },
        {
            "bufferView" : 22,
            "componentType" : 5126,
            "count" : 96,
            "type" : "VEC2"
        },
        {
            "bufferView" : 23,
            "componentType" : 5126,
            "count" : 56,
            "max" : [
                1,
                2.3826560974121094,
                1
            ],
            "min" : [
                -1,
                -1,
                -1
            ],
            "type" : "VEC3"
        },
        {
            "bufferView" : 24,
            "componentType" : 5126,
            "count" : 56,
            "type" : "VEC3"
        },
        {
            "bufferView" : 25,
            "componentType" : 5126,
            "count" : 56,
            "type" : "VEC2"
        },
        {
            "bufferView" : 26,
            "componentType" : 5123,
            "count" : 84,
            "type" : "SCALAR"
        }
    ],
    "bufferViews" : [
        {
            "buffer" : 0,
            "byteLength" : 672,
            "byteOffset" : 0
        },
        {
            "buffer" : 0,
            "byteLength" : 672,
            "byteOffset" : 672
        },
        {
            "buffer" : 0,
            "byteLength" : 448,
            "byteOffset" : 1344
        },
        {
            "buffer" : 0,
            "byteLength" : 168,
            "byteOffset" : 1792
        },
        {
            "buffer" : 0,
            "byteLength" : 22812,
            "byteOffset" : 1960
        },
        {
            "buffer" : 0,
            "byteLength" : 22812,
            "byteOffset" : 24772
        },
        {
            "buffer" : 0,
            "byteLength" : 15208,
            "byteOffset" : 47584
        },
        {
            "buffer" : 0,
            "byteLength" : 5808,
            "byteOffset" : 62792
        },
        {
            "buffer" : 0,
            "byteLength" : 1968,
            "byteOffset" : 68600
        },
        {
            "buffer" : 0,
            "byteLength" : 1968,
            "byteOffset" : 70568
        },
        {
            "buffer" : 0,
            "byteLength" : 1312,
            "byteOffset" : 72536
        },
        {
            "buffer" : 0,
            "byteLength" : 576,
            "byteOffset" : 73848
        },
        {
            "buffer" : 0,
            "byteLength" : 288,
            "byteOffset" : 74424
        },
        {
            "buffer" : 0,
            "byteLength" : 288,
            "byteOffset" : 74712
        },
        {
            "buffer" : 0,
            "byteLength" : 192,
            "byteOffset" : 75000
        },
        {
            "buffer" : 0,
            "byteLength" : 72,
            "byteOffset" : 75192
        },
        {
            "buffer" : 0,
            "byteLength" : 1152,
            "byteOffset" : 75264
        },
        {
            "buffer" : 0,
            "byteLength" : 1152,
            "byteOffset" : 76416
        },
        {
            "buffer" : 0,
            "byteLength" : 768,
            "byteOffset" : 77568
        },
        {
            "buffer" : 0,
            "byteLength" : 360,
            "byteOffset" : 78336
        },
        {
            "buffer" : 0,
            "byteLength" : 1152,
            "byteOffset" : 78696
        },
        {
            "buffer" : 0,
            "byteLength" : 1152,
            "byteOffset" : 79848
        },
        {
            "buffer" : 0,
            "byteLength" : 768,
            "byteOffset" : 81000
        },
        {
            "buffer" : 0,
            "byteLength" : 672,
            "byteOffset" : 81768
        },
        {
            "buffer" : 0,
            "byteLength" : 672,
            "byteOffset" : 82440
        },
        {
            "buffer" : 0,
            "byteLength" : 448,
            "byteOffset" : 83112
        },
        {
            "buffer" : 0,
            "byteLength" : 168,
            "byteOffset" : 83560
        }
    ],
    "buffers" : [
        {
            "byteLength" : 83728,
            "uri" : "data:application/octet-stream;base64,"
        }
    ]
}
